<svg width="11" height="12" viewBox="0 0 11 12" fill="none" xmlns="http://www.w3.org/2000/svg">
<path d="M10.8752 8.76615C10.5571 8.21459 10.0844 6.65394 10.0844 4.61558C10.0844 3.39145 9.60144 2.21746 8.74175 1.35187C7.88206 0.486283 6.71607 0 5.50029 0C4.2845 0 3.11851 0.486283 2.25882 1.35187C1.39913 2.21746 0.916161 3.39145 0.916161 4.61558C0.916161 6.65452 0.44285 8.21459 0.124826 8.76615C0.043613 8.90637 0.000558859 9.06568 5.40409e-06 9.228C-0.000548051 9.39032 0.0414189 9.54992 0.121674 9.6907C0.201929 9.83148 0.317634 9.94847 0.457121 10.0299C0.596608 10.1112 0.754944 10.1542 0.916161 10.1543H3.25464C3.3604 10.6754 3.64167 11.1437 4.05086 11.48C4.46006 11.8163 4.97207 12 5.50029 12C6.02851 12 6.54051 11.8163 6.94971 11.48C7.35891 11.1437 7.64017 10.6754 7.74593 10.1543H10.0844C10.2456 10.1541 10.4038 10.1111 10.5433 10.0296C10.6827 9.94821 10.7983 9.83122 10.8785 9.69045C10.9587 9.54969 11.0006 9.39013 11 9.22786C10.9994 9.06558 10.9564 8.90633 10.8752 8.76615ZM5.50029 11.0774C5.21597 11.0773 4.93866 10.9885 4.70654 10.8232C4.47442 10.6579 4.2989 10.4242 4.20412 10.1543H6.79645C6.70167 10.4242 6.52615 10.6579 6.29403 10.8232C6.06191 10.9885 5.78461 11.0773 5.50029 11.0774Z" fill="white"/>
</svg>
