<svg width="7" height="12" viewBox="0 0 7 12" fill="none" xmlns="http://www.w3.org/2000/svg">
<path d="M5.17253 6.00382L0.243375 1.35876C0.0757166 1.20076 -0.00531819 1.0138 0.000270416 0.797876C0.00585902 0.581949 0.0924824 0.394988 0.260141 0.236993C0.427799 0.0789977 0.626194 0 0.855327 0C1.08446 0 1.28286 0.0789977 1.45051 0.236993L6.59762 5.10325C6.73175 5.22965 6.83234 5.37184 6.89941 5.52984C6.96647 5.68783 7 5.84583 7 6.00382C7 6.16182 6.96647 6.31981 6.89941 6.47781C6.83234 6.6358 6.73175 6.778 6.59762 6.9044L1.43375 11.7707C1.26609 11.9286 1.07049 12.005 0.846944 11.9997C0.6234 11.9945 0.427799 11.9128 0.260141 11.7549C0.0924824 11.5969 0.00865333 11.4099 0.00865333 11.194C0.00865333 10.978 0.0924824 10.7911 0.260141 10.6331L5.17253 6.00382Z" fill="white"/>
</svg>
